<svg width="355" height="71" viewBox="0 0 355 71" fill="none" xmlns="http://www.w3.org/2000/svg">
<path d="M236.729 43.076C236.798 43.076 236.859 43.1042 236.911 43.1605L237.411 43.7C237.03 44.142 236.566 44.4865 236.02 44.7335C235.478 44.9805 234.822 45.104 234.051 45.104C233.383 45.104 232.777 44.9892 232.231 44.7595C231.685 44.5255 231.219 44.2005 230.833 43.7845C230.447 43.3642 230.148 42.8615 229.936 42.2765C229.724 41.6915 229.618 41.048 229.618 40.346C229.618 39.644 229.728 39.0005 229.949 38.4155C230.17 37.8305 230.48 37.3278 230.879 36.9075C231.282 36.4872 231.763 36.1622 232.322 35.9325C232.881 35.6985 233.498 35.5815 234.174 35.5815C234.837 35.5815 235.422 35.6877 235.929 35.9C236.436 36.1123 236.882 36.4005 237.268 36.7645L236.852 37.343C236.826 37.3863 236.791 37.4232 236.748 37.4535C236.709 37.4795 236.655 37.4925 236.586 37.4925C236.508 37.4925 236.412 37.4513 236.3 37.369C236.187 37.2823 236.04 37.187 235.858 37.083C235.676 36.979 235.448 36.8858 235.175 36.8035C234.902 36.7168 234.566 36.6735 234.168 36.6735C233.687 36.6735 233.247 36.758 232.848 36.927C232.449 37.0917 232.105 37.3322 231.815 37.6485C231.529 37.9648 231.305 38.3505 231.145 38.8055C230.985 39.2605 230.905 39.774 230.905 40.346C230.905 40.9267 230.987 41.4445 231.152 41.8995C231.321 42.3545 231.548 42.7402 231.834 43.0565C232.124 43.3685 232.465 43.6068 232.855 43.7715C233.249 43.9362 233.674 44.0185 234.129 44.0185C234.406 44.0185 234.655 44.0033 234.876 43.973C235.101 43.9383 235.307 43.8863 235.494 43.817C235.684 43.7477 235.86 43.661 236.02 43.557C236.185 43.4487 236.347 43.3208 236.508 43.1735C236.581 43.1085 236.655 43.076 236.729 43.076ZM254.126 40.346C254.126 41.0437 254.016 41.685 253.795 42.27C253.574 42.8507 253.262 43.3512 252.859 43.7715C252.456 44.1918 251.971 44.519 251.403 44.753C250.84 44.9827 250.216 45.0975 249.531 45.0975C248.846 45.0975 248.222 44.9827 247.659 44.753C247.096 44.519 246.612 44.1918 246.209 43.7715C245.806 43.3512 245.494 42.8507 245.273 42.27C245.052 41.685 244.942 41.0437 244.942 40.346C244.942 39.6483 245.052 39.0092 245.273 38.4285C245.494 37.8435 245.806 37.3408 246.209 36.9205C246.612 36.4958 247.096 36.1665 247.659 35.9325C248.222 35.6985 248.846 35.5815 249.531 35.5815C250.216 35.5815 250.84 35.6985 251.403 35.9325C251.971 36.1665 252.456 36.4958 252.859 36.9205C253.262 37.3408 253.574 37.8435 253.795 38.4285C254.016 39.0092 254.126 39.6483 254.126 40.346ZM252.833 40.346C252.833 39.774 252.755 39.2605 252.599 38.8055C252.443 38.3505 252.222 37.967 251.936 37.655C251.65 37.3387 251.303 37.096 250.896 36.927C250.489 36.758 250.034 36.6735 249.531 36.6735C249.033 36.6735 248.58 36.758 248.172 36.927C247.765 37.096 247.416 37.3387 247.126 37.655C246.84 37.967 246.619 38.3505 246.463 38.8055C246.307 39.2605 246.229 39.774 246.229 40.346C246.229 40.918 246.307 41.4315 246.463 41.8865C246.619 42.3372 246.84 42.7207 247.126 43.037C247.416 43.349 247.765 43.5895 248.172 43.7585C248.58 43.9232 249.033 44.0055 249.531 44.0055C250.034 44.0055 250.489 43.9232 250.896 43.7585C251.303 43.5895 251.65 43.349 251.936 43.037C252.222 42.7207 252.443 42.3372 252.599 41.8865C252.755 41.4315 252.833 40.918 252.833 40.346ZM270.302 35.6855V45H269.672C269.572 45 269.487 44.9827 269.418 44.948C269.353 44.9133 269.288 44.8548 269.223 44.7725L263.835 37.7525C263.843 37.8608 263.85 37.967 263.854 38.071C263.858 38.175 263.861 38.2725 263.861 38.3635V45H262.756V35.6855H263.406C263.462 35.6855 263.51 35.6898 263.549 35.6985C263.588 35.7028 263.622 35.7137 263.653 35.731C263.683 35.744 263.713 35.7657 263.744 35.796C263.774 35.822 263.806 35.8567 263.841 35.9L269.23 42.9135C269.221 42.8008 269.212 42.6925 269.204 42.5885C269.199 42.4802 269.197 42.3783 269.197 42.283V35.6855H270.302ZM280.769 45H279.508V35.6855H280.769V45ZM298.05 40.346C298.05 41.0437 297.939 41.6785 297.718 42.2505C297.497 42.8225 297.185 43.3122 296.782 43.7195C296.379 44.1268 295.894 44.4432 295.326 44.6685C294.763 44.8895 294.139 45 293.454 45H289.977V35.6855H293.454C294.139 35.6855 294.763 35.7982 295.326 36.0235C295.894 36.2445 296.379 36.5608 296.782 36.9725C297.185 37.3798 297.497 37.8695 297.718 38.4415C297.939 39.0135 298.05 39.6483 298.05 40.346ZM296.756 40.346C296.756 39.774 296.678 39.2627 296.522 38.812C296.366 38.3613 296.145 37.98 295.859 37.668C295.573 37.356 295.227 37.1177 294.819 36.953C294.412 36.7883 293.957 36.706 293.454 36.706H291.238V43.9795H293.454C293.957 43.9795 294.412 43.8972 294.819 43.7325C295.227 43.5678 295.573 43.3317 295.859 43.024C296.145 42.712 296.366 42.3307 296.522 41.88C296.678 41.4293 296.756 40.918 296.756 40.346ZM311.384 41.542L309.922 37.7525C309.878 37.6398 309.833 37.5098 309.785 37.3625C309.737 37.2108 309.692 37.0505 309.649 36.8815C309.558 37.2325 309.464 37.525 309.369 37.759L307.907 41.542H311.384ZM314.01 45H313.035C312.922 45 312.831 44.9718 312.762 44.9155C312.693 44.8592 312.641 44.7877 312.606 44.701L311.735 42.452H307.556L306.685 44.701C306.659 44.779 306.609 44.8483 306.535 44.909C306.461 44.9697 306.37 45 306.262 45H305.287L309.012 35.6855H310.286L314.01 45Z" fill="white"/>
<path d="M94.8 20.35L91.9875 13.0625C91.9042 12.8458 91.8167 12.5958 91.725 12.3125C91.6333 12.0208 91.5458 11.7125 91.4625 11.3875C91.2875 12.0625 91.1083 12.625 90.925 13.075L88.1125 20.35H94.8ZM99.85 27H97.975C97.7583 27 97.5833 26.9458 97.45 26.8375C97.3167 26.7292 97.2167 26.5917 97.15 26.425L95.475 22.1H87.4375L85.7625 26.425C85.7125 26.575 85.6167 26.7083 85.475 26.825C85.3333 26.9417 85.1583 27 84.95 27H83.075L90.2375 9.0875H92.6875L99.85 27ZM116.918 18.3875V25.2625C116.018 25.9125 115.055 26.4 114.03 26.725C113.013 27.0417 111.897 27.2 110.68 27.2C109.238 27.2 107.938 26.9792 106.78 26.5375C105.622 26.0875 104.63 25.4625 103.805 24.6625C102.988 23.8542 102.359 22.8875 101.918 21.7625C101.476 20.6375 101.255 19.4 101.255 18.05C101.255 16.6833 101.468 15.4375 101.893 14.3125C102.326 13.1875 102.938 12.225 103.73 11.425C104.522 10.6167 105.484 9.99167 106.618 9.55C107.751 9.10833 109.018 8.8875 110.418 8.8875C111.126 8.8875 111.784 8.94167 112.393 9.05C113.001 9.15 113.563 9.3 114.08 9.5C114.597 9.69167 115.076 9.92917 115.518 10.2125C115.959 10.4875 116.372 10.8 116.755 11.15L116.068 12.25C115.959 12.4167 115.818 12.525 115.643 12.575C115.476 12.6167 115.288 12.575 115.08 12.45C114.88 12.3333 114.651 12.1917 114.393 12.025C114.134 11.8583 113.818 11.7 113.443 11.55C113.076 11.3917 112.638 11.2583 112.13 11.15C111.63 11.0417 111.034 10.9875 110.343 10.9875C109.334 10.9875 108.422 11.1542 107.605 11.4875C106.788 11.8125 106.093 12.2833 105.518 12.9C104.943 13.5083 104.501 14.25 104.193 15.125C103.884 15.9917 103.73 16.9667 103.73 18.05C103.73 19.175 103.888 20.1833 104.205 21.075C104.53 21.9583 104.988 22.7125 105.58 23.3375C106.18 23.9542 106.905 24.425 107.755 24.75C108.605 25.075 109.559 25.2375 110.618 25.2375C111.451 25.2375 112.188 25.1458 112.83 24.9625C113.48 24.7708 114.113 24.5083 114.73 24.175V20.2375H111.943C111.784 20.2375 111.655 20.1917 111.555 20.1C111.463 20.0083 111.418 19.8958 111.418 19.7625V18.3875H116.918ZM132.304 25.025L132.292 27H121.254V9.0875H132.292V11.0625H123.679V17.0125H130.654V18.9125H123.679V25.025H132.304ZM150.821 9.0875V27H149.608C149.416 27 149.254 26.9667 149.121 26.9C148.996 26.8333 148.871 26.7208 148.746 26.5625L138.383 13.0625C138.4 13.2708 138.412 13.475 138.421 13.675C138.429 13.875 138.433 14.0625 138.433 14.2375V27H136.308V9.0875H137.558C137.666 9.0875 137.758 9.09583 137.833 9.1125C137.908 9.12083 137.975 9.14167 138.033 9.175C138.091 9.2 138.15 9.24167 138.208 9.3C138.266 9.35 138.329 9.41667 138.396 9.5L148.758 22.9875C148.741 22.7708 148.725 22.5625 148.708 22.3625C148.7 22.1542 148.696 21.9583 148.696 21.775V9.0875H150.821ZM168.6 23.3C168.733 23.3 168.85 23.3542 168.95 23.4625L169.912 24.5C169.179 25.35 168.287 26.0125 167.237 26.4875C166.196 26.9625 164.933 27.2 163.45 27.2C162.166 27.2 161 26.9792 159.95 26.5375C158.9 26.0875 158.004 25.4625 157.262 24.6625C156.521 23.8542 155.946 22.8875 155.537 21.7625C155.129 20.6375 154.925 19.4 154.925 18.05C154.925 16.7 155.137 15.4625 155.562 14.3375C155.987 13.2125 156.583 12.2458 157.35 11.4375C158.125 10.6292 159.05 10.0042 160.125 9.5625C161.2 9.1125 162.387 8.8875 163.687 8.8875C164.962 8.8875 166.087 9.09167 167.062 9.5C168.037 9.90833 168.896 10.4625 169.637 11.1625L168.837 12.275C168.787 12.3583 168.721 12.4292 168.637 12.4875C168.562 12.5375 168.458 12.5625 168.325 12.5625C168.175 12.5625 167.991 12.4833 167.775 12.325C167.558 12.1583 167.275 11.975 166.925 11.775C166.575 11.575 166.137 11.3958 165.612 11.2375C165.087 11.0708 164.441 10.9875 163.675 10.9875C162.75 10.9875 161.904 11.15 161.137 11.475C160.371 11.7917 159.708 12.2542 159.15 12.8625C158.6 13.4708 158.171 14.2125 157.862 15.0875C157.554 15.9625 157.4 16.95 157.4 18.05C157.4 19.1667 157.558 20.1625 157.875 21.0375C158.2 21.9125 158.637 22.6542 159.187 23.2625C159.746 23.8625 160.4 24.3208 161.15 24.6375C161.908 24.9542 162.725 25.1125 163.6 25.1125C164.133 25.1125 164.612 25.0833 165.037 25.025C165.471 24.9583 165.866 24.8583 166.225 24.725C166.591 24.5917 166.929 24.425 167.237 24.225C167.554 24.0167 167.866 23.7708 168.175 23.4875C168.316 23.3625 168.458 23.3 168.6 23.3ZM175.774 27H173.349V9.0875H175.774V27ZM190.493 20.35L187.681 13.0625C187.598 12.8458 187.51 12.5958 187.418 12.3125C187.327 12.0208 187.239 11.7125 187.156 11.3875C186.981 12.0625 186.802 12.625 186.618 13.075L183.806 20.35H190.493ZM195.543 27H193.668C193.452 27 193.277 26.9458 193.143 26.8375C193.01 26.7292 192.91 26.5917 192.843 26.425L191.168 22.1H183.131L181.456 26.425C181.406 26.575 181.31 26.7083 181.168 26.825C181.027 26.9417 180.852 27 180.643 27H178.768L185.931 9.0875H188.381L195.543 27ZM215.766 25.025L215.754 27H204.716V9.0875H215.754V11.0625H207.141V17.0125H214.116V18.9125H207.141V25.025H215.766ZM228.932 11.8875C228.857 12.0125 228.774 12.1083 228.682 12.175C228.599 12.2333 228.495 12.2625 228.37 12.2625C228.228 12.2625 228.062 12.1917 227.87 12.05C227.678 11.9083 227.437 11.7542 227.145 11.5875C226.862 11.4125 226.516 11.2542 226.107 11.1125C225.707 10.9708 225.22 10.9 224.645 10.9C224.103 10.9 223.624 10.975 223.207 11.125C222.799 11.2667 222.453 11.4625 222.17 11.7125C221.895 11.9625 221.687 12.2583 221.545 12.6C221.403 12.9333 221.332 13.2958 221.332 13.6875C221.332 14.1875 221.453 14.6042 221.695 14.9375C221.945 15.2625 222.27 15.5417 222.67 15.775C223.078 16.0083 223.537 16.2125 224.045 16.3875C224.562 16.5542 225.087 16.7292 225.62 16.9125C226.162 17.0958 226.687 17.3042 227.195 17.5375C227.712 17.7625 228.17 18.05 228.57 18.4C228.978 18.75 229.303 19.1792 229.545 19.6875C229.795 20.1958 229.92 20.8208 229.92 21.5625C229.92 22.3458 229.787 23.0833 229.52 23.775C229.253 24.4583 228.862 25.0542 228.345 25.5625C227.837 26.0708 227.207 26.4708 226.457 26.7625C225.716 27.0542 224.87 27.2 223.92 27.2C222.753 27.2 221.695 26.9917 220.745 26.575C219.795 26.15 218.982 25.5792 218.307 24.8625L219.007 23.7125C219.074 23.6208 219.153 23.5458 219.245 23.4875C219.345 23.4208 219.453 23.3875 219.57 23.3875C219.678 23.3875 219.799 23.4333 219.932 23.525C220.074 23.6083 220.232 23.7167 220.407 23.85C220.582 23.9833 220.782 24.1292 221.007 24.2875C221.232 24.4458 221.487 24.5917 221.77 24.725C222.062 24.8583 222.391 24.9708 222.757 25.0625C223.124 25.1458 223.537 25.1875 223.995 25.1875C224.57 25.1875 225.082 25.1083 225.532 24.95C225.982 24.7917 226.362 24.5708 226.67 24.2875C226.987 23.9958 227.228 23.65 227.395 23.25C227.562 22.85 227.645 22.4042 227.645 21.9125C227.645 21.3708 227.52 20.9292 227.27 20.5875C227.028 20.2375 226.707 19.9458 226.307 19.7125C225.907 19.4792 225.449 19.2833 224.932 19.125C224.416 18.9583 223.891 18.7917 223.357 18.625C222.824 18.45 222.299 18.25 221.782 18.025C221.266 17.8 220.807 17.5083 220.407 17.15C220.007 16.7917 219.682 16.3458 219.432 15.8125C219.191 15.2708 219.07 14.6042 219.07 13.8125C219.07 13.1792 219.191 12.5667 219.432 11.975C219.682 11.3833 220.041 10.8583 220.507 10.4C220.982 9.94167 221.562 9.575 222.245 9.3C222.937 9.025 223.728 8.8875 224.62 8.8875C225.62 8.8875 226.528 9.04583 227.345 9.3625C228.17 9.67917 228.895 10.1375 229.52 10.7375L228.932 11.8875ZM239.257 18.375C239.948 18.375 240.557 18.2833 241.082 18.1C241.615 17.9167 242.061 17.6625 242.419 17.3375C242.786 17.0042 243.061 16.6083 243.244 16.15C243.427 15.6917 243.519 15.1875 243.519 14.6375C243.519 13.4958 243.165 12.6042 242.457 11.9625C241.757 11.3208 240.69 11 239.257 11H236.382V18.375H239.257ZM239.257 9.0875C240.39 9.0875 241.373 9.22083 242.207 9.4875C243.048 9.74583 243.744 10.1167 244.294 10.6C244.844 11.0833 245.252 11.6667 245.519 12.35C245.794 13.0333 245.932 13.7958 245.932 14.6375C245.932 15.4708 245.786 16.2333 245.494 16.925C245.202 17.6167 244.773 18.2125 244.207 18.7125C243.648 19.2125 242.952 19.6042 242.119 19.8875C241.294 20.1625 240.34 20.3 239.257 20.3H236.382V27H233.969V9.0875H239.257ZM257.876 20.35L255.064 13.0625C254.98 12.8458 254.893 12.5958 254.801 12.3125C254.71 12.0208 254.622 11.7125 254.539 11.3875C254.364 12.0625 254.185 12.625 254.001 13.075L251.189 20.35H257.876ZM262.926 27H261.051C260.835 27 260.66 26.9458 260.526 26.8375C260.393 26.7292 260.293 26.5917 260.226 26.425L258.551 22.1H250.514L248.839 26.425C248.789 26.575 248.693 26.7083 248.551 26.825C248.41 26.9417 248.235 27 248.026 27H246.151L253.314 9.0875H255.764L262.926 27ZM278.019 23.3C278.152 23.3 278.269 23.3542 278.369 23.4625L279.331 24.5C278.598 25.35 277.706 26.0125 276.656 26.4875C275.615 26.9625 274.352 27.2 272.869 27.2C271.585 27.2 270.419 26.9792 269.369 26.5375C268.319 26.0875 267.423 25.4625 266.681 24.6625C265.94 23.8542 265.365 22.8875 264.956 21.7625C264.548 20.6375 264.344 19.4 264.344 18.05C264.344 16.7 264.556 15.4625 264.981 14.3375C265.406 13.2125 266.002 12.2458 266.769 11.4375C267.544 10.6292 268.469 10.0042 269.544 9.5625C270.619 9.1125 271.806 8.8875 273.106 8.8875C274.381 8.8875 275.506 9.09167 276.481 9.5C277.456 9.90833 278.315 10.4625 279.056 11.1625L278.256 12.275C278.206 12.3583 278.14 12.4292 278.056 12.4875C277.981 12.5375 277.877 12.5625 277.744 12.5625C277.594 12.5625 277.41 12.4833 277.194 12.325C276.977 12.1583 276.694 11.975 276.344 11.775C275.994 11.575 275.556 11.3958 275.031 11.2375C274.506 11.0708 273.86 10.9875 273.094 10.9875C272.169 10.9875 271.323 11.15 270.556 11.475C269.79 11.7917 269.127 12.2542 268.569 12.8625C268.019 13.4708 267.59 14.2125 267.281 15.0875C266.973 15.9625 266.819 16.95 266.819 18.05C266.819 19.1667 266.977 20.1625 267.294 21.0375C267.619 21.9125 268.056 22.6542 268.606 23.2625C269.165 23.8625 269.819 24.3208 270.569 24.6375C271.327 24.9542 272.144 25.1125 273.019 25.1125C273.552 25.1125 274.031 25.0833 274.456 25.025C274.89 24.9583 275.285 24.8583 275.644 24.725C276.01 24.5917 276.348 24.425 276.656 24.225C276.973 24.0167 277.285 23.7708 277.594 23.4875C277.735 23.3625 277.877 23.3 278.019 23.3ZM285.193 27H282.768V9.0875H285.193V27ZM299.912 20.35L297.1 13.0625C297.016 12.8458 296.929 12.5958 296.837 12.3125C296.746 12.0208 296.658 11.7125 296.575 11.3875C296.4 12.0625 296.221 12.625 296.037 13.075L293.225 20.35H299.912ZM304.962 27H303.087C302.871 27 302.696 26.9458 302.562 26.8375C302.429 26.7292 302.329 26.5917 302.262 26.425L300.587 22.1H292.55L290.875 26.425C290.825 26.575 290.729 26.7083 290.587 26.825C290.446 26.9417 290.271 27 290.062 27H288.187L295.35 9.0875H297.8L304.962 27ZM318.106 24.9625V27H307.944V9.0875H310.356V24.9625H318.106ZM100.813 44.05C100.813 45.3917 100.6 46.6125 100.175 47.7125C99.75 48.8125 99.15 49.7542 98.375 50.5375C97.6 51.3208 96.6667 51.9292 95.575 52.3625C94.4917 52.7875 93.2917 53 91.975 53H85.2875V35.0875H91.975C93.2917 35.0875 94.4917 35.3042 95.575 35.7375C96.6667 36.1625 97.6 36.7708 98.375 37.5625C99.15 38.3458 99.75 39.2875 100.175 40.3875C100.6 41.4875 100.813 42.7083 100.813 44.05ZM98.325 44.05C98.325 42.95 98.175 41.9667 97.875 41.1C97.575 40.2333 97.15 39.5 96.6 38.9C96.05 38.3 95.3833 37.8417 94.6 37.525C93.8167 37.2083 92.9417 37.05 91.975 37.05H87.7125V51.0375H91.975C92.9417 51.0375 93.8167 50.8792 94.6 50.5625C95.3833 50.2458 96.05 49.7917 96.6 49.2C97.15 48.6 97.575 47.8667 97.875 47C98.175 46.1333 98.325 45.15 98.325 44.05ZM115.981 51.025L115.969 53H104.931V35.0875H115.969V37.0625H107.356V43.0125H114.331V44.9125H107.356V51.025H115.981ZM130.147 50.9625V53H119.985V35.0875H122.397V50.9625H130.147ZM145.004 44.375C145.695 44.375 146.304 44.2833 146.829 44.1C147.362 43.9167 147.808 43.6625 148.166 43.3375C148.533 43.0042 148.808 42.6083 148.991 42.15C149.175 41.6917 149.266 41.1875 149.266 40.6375C149.266 39.4958 148.912 38.6042 148.204 37.9625C147.504 37.3208 146.437 37 145.004 37H142.129V44.375H145.004ZM145.004 35.0875C146.137 35.0875 147.12 35.2208 147.954 35.4875C148.795 35.7458 149.491 36.1167 150.041 36.6C150.591 37.0833 151 37.6667 151.266 38.35C151.541 39.0333 151.679 39.7958 151.679 40.6375C151.679 41.4708 151.533 42.2333 151.241 42.925C150.95 43.6167 150.52 44.2125 149.954 44.7125C149.395 45.2125 148.7 45.6042 147.866 45.8875C147.041 46.1625 146.087 46.3 145.004 46.3H142.129V53H139.716V35.0875H145.004ZM166.406 51.025L166.393 53H155.356V35.0875H166.393V37.0625H157.781V43.0125H164.756V44.9125H157.781V51.025H166.406ZM175.372 43.7625C176.072 43.7625 176.689 43.6792 177.222 43.5125C177.764 43.3375 178.214 43.0958 178.572 42.7875C178.939 42.4708 179.214 42.0958 179.397 41.6625C179.58 41.2292 179.672 40.75 179.672 40.225C179.672 39.1583 179.322 38.3542 178.622 37.8125C177.922 37.2708 176.872 37 175.472 37H172.822V43.7625H175.372ZM183.647 53H181.497C181.055 53 180.73 52.8292 180.522 52.4875L175.872 46.0875C175.73 45.8875 175.576 45.7458 175.41 45.6625C175.251 45.5708 175.001 45.525 174.66 45.525H172.822V53H170.41V35.0875H175.472C176.605 35.0875 177.585 35.2042 178.41 35.4375C179.235 35.6625 179.914 35.9917 180.447 36.425C180.989 36.8583 181.389 37.3833 181.647 38C181.905 38.6083 182.035 39.2917 182.035 40.05C182.035 40.6833 181.935 41.275 181.735 41.825C181.535 42.375 181.243 42.8708 180.86 43.3125C180.485 43.7458 180.022 44.1167 179.472 44.425C178.93 44.7333 178.314 44.9667 177.622 45.125C177.93 45.3 178.197 45.5542 178.422 45.8875L183.647 53ZM193.523 51.075C194.265 51.075 194.927 50.95 195.511 50.7C196.094 50.45 196.586 50.1 196.986 49.65C197.394 49.2 197.702 48.6625 197.911 48.0375C198.127 47.4125 198.236 46.725 198.236 45.975V35.0875H200.648V45.975C200.648 47.0083 200.482 47.9667 200.148 48.85C199.823 49.7333 199.352 50.5 198.736 51.15C198.127 51.7917 197.382 52.2958 196.498 52.6625C195.615 53.0292 194.623 53.2125 193.523 53.2125C192.423 53.2125 191.432 53.0292 190.548 52.6625C189.665 52.2958 188.915 51.7917 188.298 51.15C187.682 50.5 187.207 49.7333 186.873 48.85C186.548 47.9667 186.386 47.0083 186.386 45.975V35.0875H188.798V45.9625C188.798 46.7125 188.902 47.4 189.111 48.025C189.327 48.65 189.636 49.1875 190.036 49.6375C190.444 50.0875 190.94 50.4417 191.523 50.7C192.115 50.95 192.782 51.075 193.523 51.075ZM198.248 29.85L194.173 33.425C194.048 33.5417 193.927 33.6125 193.811 33.6375C193.694 33.6625 193.552 33.675 193.386 33.675H191.786L194.673 30.25C194.815 30.0667 194.957 29.9542 195.098 29.9125C195.248 29.8708 195.461 29.85 195.736 29.85H198.248Z" fill="white"/>
<rect x="3" width="68" height="68" fill="#002F59"/>
<g filter="url(#filter0_d)">
<path fill-rule="evenodd" clip-rule="evenodd" d="M45.4973 68H3V29.0905C8.08907 24.6734 14.7323 22 22 22C38.0163 22 51 34.9837 51 51C51 57.3501 48.959 63.2235 45.4973 68Z" fill="url(#paint0_radial)"/>
</g>
<path d="M3 37.1404V33.1046C32.3799 49.1455 51.3771 53.2882 57.5 47C63.2335 41.1117 56.8591 27.7279 36.8112 7L37.6581 7.09195C60.4005 27.4899 71.9078 48.3922 64.5 56C56.7827 63.9256 31.0154 54.9425 3 37.1404Z" fill="white"/>
<path d="M42 18L36 6L56.5 15.5L43 14L42 18Z" fill="#A32716"/>
<rect x="3.5" y="0.5" width="67" height="67" stroke="white"/>
<defs>
<filter id="filter0_d" x="0" y="19" width="54" height="52" filterUnits="userSpaceOnUse" color-interpolation-filters="sRGB">
<feFlood flood-opacity="0" result="BackgroundImageFix"/>
<feColorMatrix in="SourceAlpha" type="matrix" values="0 0 0 0 0 0 0 0 0 0 0 0 0 0 0 0 0 0 127 0" result="hardAlpha"/>
<feOffset/>
<feGaussianBlur stdDeviation="1.5"/>
<feComposite in2="hardAlpha" operator="out"/>
<feColorMatrix type="matrix" values="0 0 0 0 1 0 0 0 0 1 0 0 0 0 1 0 0 0 0.8 0"/>
<feBlend mode="normal" in2="BackgroundImageFix" result="effect1_dropShadow"/>
<feBlend mode="normal" in="SourceGraphic" in2="effect1_dropShadow" result="shape"/>
</filter>
<radialGradient id="paint0_radial" cx="0" cy="0" r="1" gradientUnits="userSpaceOnUse" gradientTransform="translate(27 40) rotate(127.057) scale(30.7002 32.035)">
<stop stop-color="#006E95"/>
<stop offset="1" stop-color="#002C60"/>
</radialGradient>
</defs>
</svg>
