<svg width="24" height="24" viewBox="0 0 24 24" fill="none" xmlns="http://www.w3.org/2000/svg">
<path d="M12.2269 1.92167C8.65266 1.91229 5.50734 3.76151 3.70969 6.55526C3.63 6.67948 3.71906 6.84354 3.86672 6.84354H5.51437C5.62687 6.84354 5.73234 6.79432 5.80266 6.7076C5.96672 6.50838 6.1425 6.3162 6.32766 6.13338C7.09172 5.37167 7.98 4.77167 8.96906 4.35448C9.99094 3.92323 11.0784 3.70292 12.2011 3.70292C13.3237 3.70292 14.4112 3.92088 15.4331 4.35448C16.4222 4.77167 17.3105 5.37167 18.0745 6.13338C18.8386 6.8951 19.4363 7.78338 19.8558 8.7701C20.2894 9.79198 20.5073 10.8771 20.5073 11.9998C20.5073 13.1224 20.287 14.2076 19.8558 15.2295C19.4386 16.2162 18.8386 17.1045 18.0745 17.8662C17.3105 18.6279 16.4222 19.2279 15.4331 19.6451C14.4104 20.0771 13.3113 20.2986 12.2011 20.2967C11.0784 20.2967 9.99094 20.0764 8.96906 19.6451C7.98194 19.2283 7.08494 18.6242 6.32766 17.8662C6.1425 17.681 5.96906 17.4889 5.80266 17.292C5.73234 17.2053 5.62453 17.156 5.51437 17.156H3.86672C3.71906 17.156 3.62766 17.3201 3.70969 17.4443C5.505 20.231 8.63625 22.0779 12.2011 22.0779C17.737 22.0779 22.2323 17.6224 22.2886 12.1029C22.3448 6.49432 17.8425 1.93573 12.2269 1.92167ZM9.25781 14.6248V12.8435H1.89844C1.79531 12.8435 1.71094 12.7592 1.71094 12.656V11.3435C1.71094 11.2404 1.79531 11.156 1.89844 11.156H9.25781V9.37479C9.25781 9.21776 9.44063 9.1287 9.5625 9.22713L12.8883 11.8521C12.9107 11.8697 12.9288 11.8921 12.9413 11.9177C12.9537 11.9432 12.9602 11.9713 12.9602 11.9998C12.9602 12.0282 12.9537 12.0563 12.9413 12.0819C12.9288 12.1075 12.9107 12.1299 12.8883 12.1474L9.5625 14.7724C9.44063 14.8685 9.25781 14.7818 9.25781 14.6248Z" fill="white"/>
</svg>
