<svg width="310" height="59" viewBox="0 0 310 59" fill="none" xmlns="http://www.w3.org/2000/svg">
<path d="M1.23926 34.0436V30.958C23.1858 43.222 39.1655 46.3076 43.7393 41.5C48.0221 36.9982 41.4715 26.8473 26.4959 11L27.1286 11.0703C44.1169 26.6654 52.9326 41.8235 47.399 47.64C41.6342 53.6994 22.1665 47.654 1.23926 34.0436Z" fill="#F1F8FD"/>
<path fill-rule="evenodd" clip-rule="evenodd" d="M1.5 1.5H57.5V57.5H1.5V1.5ZM0 0H1.5H57.5H59V1.5V57.5V59H57.5H1.5H0V57.5V1.5V0ZM19 3L25 15L26 11L39.5 12.5L19 3Z" fill="#F1F8FD"/>
<path fill-rule="evenodd" clip-rule="evenodd" d="M34.5194 57.5C37.1911 53.3114 38.7393 48.3365 38.7393 43C38.7393 28.0883 26.6509 16 11.7393 16C8.01503 16 4.46692 16.754 1.23926 18.1177V19.7552C4.44136 18.3065 7.99612 17.5 11.7393 17.5C25.8225 17.5 37.2393 28.9167 37.2393 43C37.2393 48.3866 35.569 53.3832 32.7182 57.5H34.5194Z" fill="#F1F8FD"/>
<path d="M80.8 17.35L77.9875 10.0625C77.9042 9.84583 77.8167 9.59583 77.725 9.3125C77.6333 9.02083 77.5458 8.7125 77.4625 8.3875C77.2875 9.0625 77.1083 9.625 76.925 10.075L74.1125 17.35H80.8ZM85.85 24H83.975C83.7583 24 83.5833 23.9458 83.45 23.8375C83.3167 23.7292 83.2167 23.5917 83.15 23.425L81.475 19.1H73.4375L71.7625 23.425C71.7125 23.575 71.6167 23.7083 71.475 23.825C71.3333 23.9417 71.1583 24 70.95 24H69.075L76.2375 6.0875H78.6875L85.85 24ZM102.918 15.3875V22.2625C102.018 22.9125 101.055 23.4 100.03 23.725C99.0134 24.0417 97.8967 24.2 96.6801 24.2C95.2384 24.2 93.9384 23.9792 92.7801 23.5375C91.6217 23.0875 90.6301 22.4625 89.8051 21.6625C88.9884 20.8542 88.3592 19.8875 87.9176 18.7625C87.4759 17.6375 87.2551 16.4 87.2551 15.05C87.2551 13.6833 87.4676 12.4375 87.8926 11.3125C88.3259 10.1875 88.9384 9.225 89.7301 8.425C90.5217 7.61667 91.4842 6.99167 92.6176 6.55C93.7509 6.10833 95.0176 5.8875 96.4176 5.8875C97.1259 5.8875 97.7842 5.94167 98.3926 6.05C99.0009 6.15 99.5634 6.3 100.08 6.5C100.597 6.69167 101.076 6.92917 101.518 7.2125C101.959 7.4875 102.372 7.8 102.755 8.15L102.068 9.25C101.959 9.41667 101.818 9.525 101.643 9.575C101.476 9.61667 101.288 9.575 101.08 9.45C100.88 9.33333 100.651 9.19167 100.393 9.025C100.134 8.85833 99.8176 8.7 99.4426 8.55C99.0759 8.39167 98.6384 8.25833 98.1301 8.15C97.6301 8.04167 97.0342 7.9875 96.3426 7.9875C95.3342 7.9875 94.4217 8.15417 93.6051 8.4875C92.7884 8.8125 92.0926 9.28333 91.5176 9.9C90.9426 10.5083 90.5009 11.25 90.1926 12.125C89.8842 12.9917 89.7301 13.9667 89.7301 15.05C89.7301 16.175 89.8884 17.1833 90.2051 18.075C90.5301 18.9583 90.9884 19.7125 91.5801 20.3375C92.1801 20.9542 92.9051 21.425 93.7551 21.75C94.6051 22.075 95.5592 22.2375 96.6176 22.2375C97.4509 22.2375 98.1884 22.1458 98.8301 21.9625C99.4801 21.7708 100.113 21.5083 100.73 21.175V17.2375H97.9426C97.7842 17.2375 97.6551 17.1917 97.5551 17.1C97.4634 17.0083 97.4176 16.8958 97.4176 16.7625V15.3875H102.918ZM118.304 22.025L118.292 24H107.254V6.0875H118.292V8.0625H109.679V14.0125H116.654V15.9125H109.679V22.025H118.304ZM136.821 6.0875V24H135.608C135.416 24 135.254 23.9667 135.121 23.9C134.996 23.8333 134.871 23.7208 134.746 23.5625L124.383 10.0625C124.4 10.2708 124.412 10.475 124.421 10.675C124.429 10.875 124.433 11.0625 124.433 11.2375V24H122.308V6.0875H123.558C123.666 6.0875 123.758 6.09583 123.833 6.1125C123.908 6.12083 123.975 6.14167 124.033 6.175C124.091 6.2 124.15 6.24167 124.208 6.3C124.266 6.35 124.329 6.41667 124.396 6.5L134.758 19.9875C134.741 19.7708 134.725 19.5625 134.708 19.3625C134.7 19.1542 134.696 18.9583 134.696 18.775V6.0875H136.821ZM154.6 20.3C154.733 20.3 154.85 20.3542 154.95 20.4625L155.912 21.5C155.179 22.35 154.287 23.0125 153.237 23.4875C152.196 23.9625 150.933 24.2 149.45 24.2C148.166 24.2 147 23.9792 145.95 23.5375C144.9 23.0875 144.004 22.4625 143.262 21.6625C142.521 20.8542 141.946 19.8875 141.537 18.7625C141.129 17.6375 140.925 16.4 140.925 15.05C140.925 13.7 141.137 12.4625 141.562 11.3375C141.987 10.2125 142.583 9.24583 143.35 8.4375C144.125 7.62917 145.05 7.00417 146.125 6.5625C147.2 6.1125 148.387 5.8875 149.687 5.8875C150.962 5.8875 152.087 6.09167 153.062 6.5C154.037 6.90833 154.896 7.4625 155.637 8.1625L154.837 9.275C154.787 9.35833 154.721 9.42917 154.637 9.4875C154.562 9.5375 154.458 9.5625 154.325 9.5625C154.175 9.5625 153.991 9.48333 153.775 9.325C153.558 9.15833 153.275 8.975 152.925 8.775C152.575 8.575 152.137 8.39583 151.612 8.2375C151.087 8.07083 150.441 7.9875 149.675 7.9875C148.75 7.9875 147.904 8.15 147.137 8.475C146.371 8.79167 145.708 9.25417 145.15 9.8625C144.6 10.4708 144.171 11.2125 143.862 12.0875C143.554 12.9625 143.4 13.95 143.4 15.05C143.4 16.1667 143.558 17.1625 143.875 18.0375C144.2 18.9125 144.637 19.6542 145.187 20.2625C145.746 20.8625 146.4 21.3208 147.15 21.6375C147.908 21.9542 148.725 22.1125 149.6 22.1125C150.133 22.1125 150.612 22.0833 151.037 22.025C151.471 21.9583 151.866 21.8583 152.225 21.725C152.591 21.5917 152.929 21.425 153.237 21.225C153.554 21.0167 153.866 20.7708 154.175 20.4875C154.316 20.3625 154.458 20.3 154.6 20.3ZM161.774 24H159.349V6.0875H161.774V24ZM176.493 17.35L173.681 10.0625C173.598 9.84583 173.51 9.59583 173.418 9.3125C173.327 9.02083 173.239 8.7125 173.156 8.3875C172.981 9.0625 172.802 9.625 172.618 10.075L169.806 17.35H176.493ZM181.543 24H179.668C179.452 24 179.277 23.9458 179.143 23.8375C179.01 23.7292 178.91 23.5917 178.843 23.425L177.168 19.1H169.131L167.456 23.425C167.406 23.575 167.31 23.7083 167.168 23.825C167.027 23.9417 166.852 24 166.643 24H164.768L171.931 6.0875H174.381L181.543 24ZM201.766 22.025L201.754 24H190.716V6.0875H201.754V8.0625H193.141V14.0125H200.116V15.9125H193.141V22.025H201.766ZM214.932 8.8875C214.857 9.0125 214.774 9.10833 214.682 9.175C214.599 9.23333 214.495 9.2625 214.37 9.2625C214.228 9.2625 214.062 9.19167 213.87 9.05C213.678 8.90833 213.437 8.75417 213.145 8.5875C212.862 8.4125 212.516 8.25417 212.107 8.1125C211.707 7.97083 211.22 7.9 210.645 7.9C210.103 7.9 209.624 7.975 209.207 8.125C208.799 8.26667 208.453 8.4625 208.17 8.7125C207.895 8.9625 207.687 9.25833 207.545 9.6C207.403 9.93333 207.332 10.2958 207.332 10.6875C207.332 11.1875 207.453 11.6042 207.695 11.9375C207.945 12.2625 208.27 12.5417 208.67 12.775C209.078 13.0083 209.537 13.2125 210.045 13.3875C210.562 13.5542 211.087 13.7292 211.62 13.9125C212.162 14.0958 212.687 14.3042 213.195 14.5375C213.712 14.7625 214.17 15.05 214.57 15.4C214.978 15.75 215.303 16.1792 215.545 16.6875C215.795 17.1958 215.92 17.8208 215.92 18.5625C215.92 19.3458 215.787 20.0833 215.52 20.775C215.253 21.4583 214.862 22.0542 214.345 22.5625C213.837 23.0708 213.207 23.4708 212.457 23.7625C211.716 24.0542 210.87 24.2 209.92 24.2C208.753 24.2 207.695 23.9917 206.745 23.575C205.795 23.15 204.982 22.5792 204.307 21.8625L205.007 20.7125C205.074 20.6208 205.153 20.5458 205.245 20.4875C205.345 20.4208 205.453 20.3875 205.57 20.3875C205.678 20.3875 205.799 20.4333 205.932 20.525C206.074 20.6083 206.232 20.7167 206.407 20.85C206.582 20.9833 206.782 21.1292 207.007 21.2875C207.232 21.4458 207.487 21.5917 207.77 21.725C208.062 21.8583 208.391 21.9708 208.757 22.0625C209.124 22.1458 209.537 22.1875 209.995 22.1875C210.57 22.1875 211.082 22.1083 211.532 21.95C211.982 21.7917 212.362 21.5708 212.67 21.2875C212.987 20.9958 213.228 20.65 213.395 20.25C213.562 19.85 213.645 19.4042 213.645 18.9125C213.645 18.3708 213.52 17.9292 213.27 17.5875C213.028 17.2375 212.707 16.9458 212.307 16.7125C211.907 16.4792 211.449 16.2833 210.932 16.125C210.416 15.9583 209.891 15.7917 209.357 15.625C208.824 15.45 208.299 15.25 207.782 15.025C207.266 14.8 206.807 14.5083 206.407 14.15C206.007 13.7917 205.682 13.3458 205.432 12.8125C205.191 12.2708 205.07 11.6042 205.07 10.8125C205.07 10.1792 205.191 9.56667 205.432 8.975C205.682 8.38333 206.041 7.85833 206.507 7.4C206.982 6.94167 207.562 6.575 208.245 6.3C208.937 6.025 209.728 5.8875 210.62 5.8875C211.62 5.8875 212.528 6.04583 213.345 6.3625C214.17 6.67917 214.895 7.1375 215.52 7.7375L214.932 8.8875ZM225.257 15.375C225.948 15.375 226.557 15.2833 227.082 15.1C227.615 14.9167 228.061 14.6625 228.419 14.3375C228.786 14.0042 229.061 13.6083 229.244 13.15C229.427 12.6917 229.519 12.1875 229.519 11.6375C229.519 10.4958 229.165 9.60417 228.457 8.9625C227.757 8.32083 226.69 8 225.257 8H222.382V15.375H225.257ZM225.257 6.0875C226.39 6.0875 227.373 6.22083 228.207 6.4875C229.048 6.74583 229.744 7.11667 230.294 7.6C230.844 8.08333 231.252 8.66667 231.519 9.35C231.794 10.0333 231.932 10.7958 231.932 11.6375C231.932 12.4708 231.786 13.2333 231.494 13.925C231.202 14.6167 230.773 15.2125 230.207 15.7125C229.648 16.2125 228.952 16.6042 228.119 16.8875C227.294 17.1625 226.34 17.3 225.257 17.3H222.382V24H219.969V6.0875H225.257ZM243.876 17.35L241.064 10.0625C240.98 9.84583 240.893 9.59583 240.801 9.3125C240.71 9.02083 240.622 8.7125 240.539 8.3875C240.364 9.0625 240.185 9.625 240.001 10.075L237.189 17.35H243.876ZM248.926 24H247.051C246.835 24 246.66 23.9458 246.526 23.8375C246.393 23.7292 246.293 23.5917 246.226 23.425L244.551 19.1H236.514L234.839 23.425C234.789 23.575 234.693 23.7083 234.551 23.825C234.41 23.9417 234.235 24 234.026 24H232.151L239.314 6.0875H241.764L248.926 24ZM264.019 20.3C264.152 20.3 264.269 20.3542 264.369 20.4625L265.331 21.5C264.598 22.35 263.706 23.0125 262.656 23.4875C261.615 23.9625 260.352 24.2 258.869 24.2C257.585 24.2 256.419 23.9792 255.369 23.5375C254.319 23.0875 253.423 22.4625 252.681 21.6625C251.94 20.8542 251.365 19.8875 250.956 18.7625C250.548 17.6375 250.344 16.4 250.344 15.05C250.344 13.7 250.556 12.4625 250.981 11.3375C251.406 10.2125 252.002 9.24583 252.769 8.4375C253.544 7.62917 254.469 7.00417 255.544 6.5625C256.619 6.1125 257.806 5.8875 259.106 5.8875C260.381 5.8875 261.506 6.09167 262.481 6.5C263.456 6.90833 264.315 7.4625 265.056 8.1625L264.256 9.275C264.206 9.35833 264.14 9.42917 264.056 9.4875C263.981 9.5375 263.877 9.5625 263.744 9.5625C263.594 9.5625 263.41 9.48333 263.194 9.325C262.977 9.15833 262.694 8.975 262.344 8.775C261.994 8.575 261.556 8.39583 261.031 8.2375C260.506 8.07083 259.86 7.9875 259.094 7.9875C258.169 7.9875 257.323 8.15 256.556 8.475C255.79 8.79167 255.127 9.25417 254.569 9.8625C254.019 10.4708 253.59 11.2125 253.281 12.0875C252.973 12.9625 252.819 13.95 252.819 15.05C252.819 16.1667 252.977 17.1625 253.294 18.0375C253.619 18.9125 254.056 19.6542 254.606 20.2625C255.165 20.8625 255.819 21.3208 256.569 21.6375C257.327 21.9542 258.144 22.1125 259.019 22.1125C259.552 22.1125 260.031 22.0833 260.456 22.025C260.89 21.9583 261.285 21.8583 261.644 21.725C262.01 21.5917 262.348 21.425 262.656 21.225C262.973 21.0167 263.285 20.7708 263.594 20.4875C263.735 20.3625 263.877 20.3 264.019 20.3ZM271.193 24H268.768V6.0875H271.193V24ZM285.912 17.35L283.1 10.0625C283.016 9.84583 282.929 9.59583 282.837 9.3125C282.746 9.02083 282.658 8.7125 282.575 8.3875C282.4 9.0625 282.221 9.625 282.037 10.075L279.225 17.35H285.912ZM290.962 24H289.087C288.871 24 288.696 23.9458 288.562 23.8375C288.429 23.7292 288.329 23.5917 288.262 23.425L286.587 19.1H278.55L276.875 23.425C276.825 23.575 276.729 23.7083 276.587 23.825C276.446 23.9417 276.271 24 276.062 24H274.187L281.35 6.0875H283.8L290.962 24ZM304.106 21.9625V24H293.944V6.0875H296.356V21.9625H304.106ZM86.8125 41.05C86.8125 42.3917 86.6 43.6125 86.175 44.7125C85.75 45.8125 85.15 46.7542 84.375 47.5375C83.6 48.3208 82.6667 48.9292 81.575 49.3625C80.4917 49.7875 79.2917 50 77.975 50H71.2875V32.0875H77.975C79.2917 32.0875 80.4917 32.3042 81.575 32.7375C82.6667 33.1625 83.6 33.7708 84.375 34.5625C85.15 35.3458 85.75 36.2875 86.175 37.3875C86.6 38.4875 86.8125 39.7083 86.8125 41.05ZM84.325 41.05C84.325 39.95 84.175 38.9667 83.875 38.1C83.575 37.2333 83.15 36.5 82.6 35.9C82.05 35.3 81.3833 34.8417 80.6 34.525C79.8167 34.2083 78.9417 34.05 77.975 34.05H73.7125V48.0375H77.975C78.9417 48.0375 79.8167 47.8792 80.6 47.5625C81.3833 47.2458 82.05 46.7917 82.6 46.2C83.15 45.6 83.575 44.8667 83.875 44C84.175 43.1333 84.325 42.15 84.325 41.05ZM101.981 48.025L101.969 50H90.9311V32.0875H101.969V34.0625H93.3561V40.0125H100.331V41.9125H93.3561V48.025H101.981ZM116.147 47.9625V50H105.985V32.0875H108.397V47.9625H116.147ZM131.004 41.375C131.695 41.375 132.304 41.2833 132.829 41.1C133.362 40.9167 133.808 40.6625 134.166 40.3375C134.533 40.0042 134.808 39.6083 134.991 39.15C135.175 38.6917 135.266 38.1875 135.266 37.6375C135.266 36.4958 134.912 35.6042 134.204 34.9625C133.504 34.3208 132.437 34 131.004 34H128.129V41.375H131.004ZM131.004 32.0875C132.137 32.0875 133.12 32.2208 133.954 32.4875C134.795 32.7458 135.491 33.1167 136.041 33.6C136.591 34.0833 137 34.6667 137.266 35.35C137.541 36.0333 137.679 36.7958 137.679 37.6375C137.679 38.4708 137.533 39.2333 137.241 39.925C136.95 40.6167 136.52 41.2125 135.954 41.7125C135.395 42.2125 134.7 42.6042 133.866 42.8875C133.041 43.1625 132.087 43.3 131.004 43.3H128.129V50H125.716V32.0875H131.004ZM152.406 48.025L152.393 50H141.356V32.0875H152.393V34.0625H143.781V40.0125H150.756V41.9125H143.781V48.025H152.406ZM161.372 40.7625C162.072 40.7625 162.689 40.6792 163.222 40.5125C163.764 40.3375 164.214 40.0958 164.572 39.7875C164.939 39.4708 165.214 39.0958 165.397 38.6625C165.58 38.2292 165.672 37.75 165.672 37.225C165.672 36.1583 165.322 35.3542 164.622 34.8125C163.922 34.2708 162.872 34 161.472 34H158.822V40.7625H161.372ZM169.647 50H167.497C167.055 50 166.73 49.8292 166.522 49.4875L161.872 43.0875C161.73 42.8875 161.576 42.7458 161.41 42.6625C161.251 42.5708 161.001 42.525 160.66 42.525H158.822V50H156.41V32.0875H161.472C162.605 32.0875 163.585 32.2042 164.41 32.4375C165.235 32.6625 165.914 32.9917 166.447 33.425C166.989 33.8583 167.389 34.3833 167.647 35C167.905 35.6083 168.035 36.2917 168.035 37.05C168.035 37.6833 167.935 38.275 167.735 38.825C167.535 39.375 167.243 39.8708 166.86 40.3125C166.485 40.7458 166.022 41.1167 165.472 41.425C164.93 41.7333 164.314 41.9667 163.622 42.125C163.93 42.3 164.197 42.5542 164.422 42.8875L169.647 50ZM179.523 48.075C180.265 48.075 180.927 47.95 181.511 47.7C182.094 47.45 182.586 47.1 182.986 46.65C183.394 46.2 183.702 45.6625 183.911 45.0375C184.127 44.4125 184.236 43.725 184.236 42.975V32.0875H186.648V42.975C186.648 44.0083 186.482 44.9667 186.148 45.85C185.823 46.7333 185.352 47.5 184.736 48.15C184.127 48.7917 183.382 49.2958 182.498 49.6625C181.615 50.0292 180.623 50.2125 179.523 50.2125C178.423 50.2125 177.432 50.0292 176.548 49.6625C175.665 49.2958 174.915 48.7917 174.298 48.15C173.682 47.5 173.207 46.7333 172.873 45.85C172.548 44.9667 172.386 44.0083 172.386 42.975V32.0875H174.798V42.9625C174.798 43.7125 174.902 44.4 175.111 45.025C175.327 45.65 175.636 46.1875 176.036 46.6375C176.444 47.0875 176.94 47.4417 177.523 47.7C178.115 47.95 178.782 48.075 179.523 48.075ZM184.248 26.85L180.173 30.425C180.048 30.5417 179.927 30.6125 179.811 30.6375C179.694 30.6625 179.552 30.675 179.386 30.675H177.786L180.673 27.25C180.815 27.0667 180.957 26.9542 181.098 26.9125C181.248 26.8708 181.461 26.85 181.736 26.85H184.248Z" fill="#F1F8FD"/>
<path d="M223.729 40.076C223.798 40.076 223.859 40.1042 223.911 40.1605L224.411 40.7C224.03 41.142 223.566 41.4865 223.02 41.7335C222.478 41.9805 221.822 42.104 221.051 42.104C220.383 42.104 219.777 41.9892 219.231 41.7595C218.685 41.5255 218.219 41.2005 217.833 40.7845C217.447 40.3642 217.148 39.8615 216.936 39.2765C216.724 38.6915 216.618 38.048 216.618 37.346C216.618 36.644 216.728 36.0005 216.949 35.4155C217.17 34.8305 217.48 34.3278 217.879 33.9075C218.282 33.4872 218.763 33.1622 219.322 32.9325C219.881 32.6985 220.498 32.5815 221.174 32.5815C221.837 32.5815 222.422 32.6877 222.929 32.9C223.436 33.1123 223.882 33.4005 224.268 33.7645L223.852 34.343C223.826 34.3863 223.791 34.4232 223.748 34.4535C223.709 34.4795 223.655 34.4925 223.586 34.4925C223.508 34.4925 223.412 34.4513 223.3 34.369C223.187 34.2823 223.04 34.187 222.858 34.083C222.676 33.979 222.448 33.8858 222.175 33.8035C221.902 33.7168 221.566 33.6735 221.168 33.6735C220.687 33.6735 220.247 33.758 219.848 33.927C219.449 34.0917 219.105 34.3322 218.815 34.6485C218.529 34.9648 218.305 35.3505 218.145 35.8055C217.985 36.2605 217.905 36.774 217.905 37.346C217.905 37.9267 217.987 38.4445 218.152 38.8995C218.321 39.3545 218.548 39.7402 218.834 40.0565C219.124 40.3685 219.465 40.6068 219.855 40.7715C220.249 40.9362 220.674 41.0185 221.129 41.0185C221.406 41.0185 221.655 41.0033 221.876 40.973C222.101 40.9383 222.307 40.8863 222.494 40.817C222.684 40.7477 222.86 40.661 223.02 40.557C223.185 40.4487 223.347 40.3208 223.508 40.1735C223.581 40.1085 223.655 40.076 223.729 40.076ZM241.126 37.346C241.126 38.0437 241.016 38.685 240.795 39.27C240.574 39.8507 240.262 40.3512 239.859 40.7715C239.456 41.1918 238.971 41.519 238.403 41.753C237.84 41.9827 237.216 42.0975 236.531 42.0975C235.846 42.0975 235.222 41.9827 234.659 41.753C234.096 41.519 233.612 41.1918 233.209 40.7715C232.806 40.3512 232.494 39.8507 232.273 39.27C232.052 38.685 231.942 38.0437 231.942 37.346C231.942 36.6483 232.052 36.0092 232.273 35.4285C232.494 34.8435 232.806 34.3408 233.209 33.9205C233.612 33.4958 234.096 33.1665 234.659 32.9325C235.222 32.6985 235.846 32.5815 236.531 32.5815C237.216 32.5815 237.84 32.6985 238.403 32.9325C238.971 33.1665 239.456 33.4958 239.859 33.9205C240.262 34.3408 240.574 34.8435 240.795 35.4285C241.016 36.0092 241.126 36.6483 241.126 37.346ZM239.833 37.346C239.833 36.774 239.755 36.2605 239.599 35.8055C239.443 35.3505 239.222 34.967 238.936 34.655C238.65 34.3387 238.303 34.096 237.896 33.927C237.489 33.758 237.034 33.6735 236.531 33.6735C236.033 33.6735 235.58 33.758 235.172 33.927C234.765 34.096 234.416 34.3387 234.126 34.655C233.84 34.967 233.619 35.3505 233.463 35.8055C233.307 36.2605 233.229 36.774 233.229 37.346C233.229 37.918 233.307 38.4315 233.463 38.8865C233.619 39.3372 233.84 39.7207 234.126 40.037C234.416 40.349 234.765 40.5895 235.172 40.7585C235.58 40.9232 236.033 41.0055 236.531 41.0055C237.034 41.0055 237.489 40.9232 237.896 40.7585C238.303 40.5895 238.65 40.349 238.936 40.037C239.222 39.7207 239.443 39.3372 239.599 38.8865C239.755 38.4315 239.833 37.918 239.833 37.346ZM257.302 32.6855V42H256.672C256.572 42 256.487 41.9827 256.418 41.948C256.353 41.9133 256.288 41.8548 256.223 41.7725L250.835 34.7525C250.843 34.8608 250.85 34.967 250.854 35.071C250.858 35.175 250.861 35.2725 250.861 35.3635V42H249.756V32.6855H250.406C250.462 32.6855 250.51 32.6898 250.549 32.6985C250.588 32.7028 250.622 32.7137 250.653 32.731C250.683 32.744 250.713 32.7657 250.744 32.796C250.774 32.822 250.806 32.8567 250.841 32.9L256.23 39.9135C256.221 39.8008 256.212 39.6925 256.204 39.5885C256.199 39.4802 256.197 39.3783 256.197 39.283V32.6855H257.302ZM267.769 42H266.508V32.6855H267.769V42ZM285.05 37.346C285.05 38.0437 284.939 38.6785 284.718 39.2505C284.497 39.8225 284.185 40.3122 283.782 40.7195C283.379 41.1268 282.894 41.4432 282.326 41.6685C281.763 41.8895 281.139 42 280.454 42H276.977V32.6855H280.454C281.139 32.6855 281.763 32.7982 282.326 33.0235C282.894 33.2445 283.379 33.5608 283.782 33.9725C284.185 34.3798 284.497 34.8695 284.718 35.4415C284.939 36.0135 285.05 36.6483 285.05 37.346ZM283.756 37.346C283.756 36.774 283.678 36.2627 283.522 35.812C283.366 35.3613 283.145 34.98 282.859 34.668C282.573 34.356 282.227 34.1177 281.819 33.953C281.412 33.7883 280.957 33.706 280.454 33.706H278.238V40.9795H280.454C280.957 40.9795 281.412 40.8972 281.819 40.7325C282.227 40.5678 282.573 40.3317 282.859 40.024C283.145 39.712 283.366 39.3307 283.522 38.88C283.678 38.4293 283.756 37.918 283.756 37.346ZM298.384 38.542L296.922 34.7525C296.878 34.6398 296.833 34.5098 296.785 34.3625C296.737 34.2108 296.692 34.0505 296.649 33.8815C296.558 34.2325 296.464 34.525 296.369 34.759L294.907 38.542H298.384ZM301.01 42H300.035C299.922 42 299.831 41.9718 299.762 41.9155C299.693 41.8592 299.641 41.7877 299.606 41.701L298.735 39.452H294.556L293.685 41.701C293.659 41.779 293.609 41.8483 293.535 41.909C293.461 41.9697 293.37 42 293.262 42H292.287L296.012 32.6855H297.286L301.01 42Z" fill="#F1F8FD"/>
</svg>
