<svg width="131" height="240" viewBox="0 0 131 240" fill="none" xmlns="http://www.w3.org/2000/svg">
<rect width="124.216" height="125" fill="#002F59"/>
<path fill-rule="evenodd" clip-rule="evenodd" d="M77.63 124.971H0V53.4461C9.29623 45.3265 21.4315 40.4121 34.7074 40.4121C63.9644 40.4121 87.6818 64.2793 87.6818 93.7209C87.6818 105.394 83.9536 116.191 77.63 124.971Z" fill="#00729E"/>
<path d="M0 68.243V60.8243C53.6684 90.3113 88.3707 97.9264 99.5554 86.3673C110.029 75.5433 98.3846 50.9406 61.763 12.8379L63.3102 13.0069C104.854 50.5031 125.874 88.9266 112.342 102.911C98.245 117.481 51.1759 100.967 0 68.243Z" fill="white"/>
<path d="M71.2415 33.0588L60.2812 11L97.7287 28.4632L73.0682 25.7059L71.2415 33.0588Z" fill="#A32716"/>
<path d="M9.512 232.632C9.59733 232.632 9.672 232.667 9.736 232.736L10.352 233.4C9.88267 233.944 9.312 234.368 8.64 234.672C7.97333 234.976 7.16533 235.128 6.216 235.128C5.39467 235.128 4.648 234.987 3.976 234.704C3.304 234.416 2.73067 234.016 2.256 233.504C1.78133 232.987 1.41333 232.368 1.152 231.648C0.890667 230.928 0.76 230.136 0.76 229.272C0.76 228.408 0.896 227.616 1.168 226.896C1.44 226.176 1.82133 225.557 2.312 225.04C2.808 224.523 3.4 224.123 4.088 223.84C4.776 223.552 5.536 223.408 6.368 223.408C7.184 223.408 7.904 223.539 8.528 223.8C9.152 224.061 9.70133 224.416 10.176 224.864L9.664 225.576C9.632 225.629 9.58933 225.675 9.536 225.712C9.488 225.744 9.42133 225.76 9.336 225.76C9.24 225.76 9.12267 225.709 8.984 225.608C8.84533 225.501 8.664 225.384 8.44 225.256C8.216 225.128 7.936 225.013 7.6 224.912C7.264 224.805 6.85067 224.752 6.36 224.752C5.768 224.752 5.22667 224.856 4.736 225.064C4.24533 225.267 3.82133 225.563 3.464 225.952C3.112 226.341 2.83733 226.816 2.64 227.376C2.44267 227.936 2.344 228.568 2.344 229.272C2.344 229.987 2.44533 230.624 2.648 231.184C2.856 231.744 3.136 232.219 3.488 232.608C3.84533 232.992 4.264 233.285 4.744 233.488C5.22933 233.691 5.752 233.792 6.312 233.792C6.65333 233.792 6.96 233.773 7.232 233.736C7.50933 233.693 7.76267 233.629 7.992 233.544C8.22667 233.459 8.44267 233.352 8.64 233.224C8.84267 233.091 9.04267 232.933 9.24 232.752C9.33067 232.672 9.42133 232.632 9.512 232.632ZM30.9248 229.272C30.9248 230.131 30.7888 230.92 30.5168 231.64C30.2448 232.355 29.8608 232.971 29.3647 233.488C28.8688 234.005 28.2714 234.408 27.5728 234.696C26.8794 234.979 26.1114 235.12 25.2687 235.12C24.4261 235.12 23.6581 234.979 22.9647 234.696C22.2714 234.408 21.6767 234.005 21.1807 233.488C20.6847 232.971 20.3007 232.355 20.0287 231.64C19.7567 230.92 19.6207 230.131 19.6207 229.272C19.6207 228.413 19.7567 227.627 20.0287 226.912C20.3007 226.192 20.6847 225.573 21.1807 225.056C21.6767 224.533 22.2714 224.128 22.9647 223.84C23.6581 223.552 24.4261 223.408 25.2687 223.408C26.1114 223.408 26.8794 223.552 27.5728 223.84C28.2714 224.128 28.8688 224.533 29.3647 225.056C29.8608 225.573 30.2448 226.192 30.5168 226.912C30.7888 227.627 30.9248 228.413 30.9248 229.272ZM29.3328 229.272C29.3328 228.568 29.2368 227.936 29.0448 227.376C28.8528 226.816 28.5808 226.344 28.2288 225.96C27.8768 225.571 27.4501 225.272 26.9487 225.064C26.4474 224.856 25.8874 224.752 25.2687 224.752C24.6554 224.752 24.0981 224.856 23.5967 225.064C23.0954 225.272 22.6661 225.571 22.3087 225.96C21.9567 226.344 21.6847 226.816 21.4927 227.376C21.3007 227.936 21.2047 228.568 21.2047 229.272C21.2047 229.976 21.3007 230.608 21.4927 231.168C21.6847 231.723 21.9567 232.195 22.3087 232.584C22.6661 232.968 23.0954 233.264 23.5967 233.472C24.0981 233.675 24.6554 233.776 25.2687 233.776C25.8874 233.776 26.4474 233.675 26.9487 233.472C27.4501 233.264 27.8768 232.968 28.2288 232.584C28.5808 232.195 28.8528 231.723 29.0448 231.168C29.2368 230.608 29.3328 229.976 29.3328 229.272ZM50.8333 223.536V235H50.0573C49.9346 235 49.8306 234.979 49.7452 234.936C49.6652 234.893 49.5852 234.821 49.5052 234.72L42.8732 226.08C42.8839 226.213 42.8919 226.344 42.8972 226.472C42.9026 226.6 42.9052 226.72 42.9052 226.832V235H41.5452V223.536H42.3452C42.4146 223.536 42.4732 223.541 42.5212 223.552C42.5692 223.557 42.6119 223.571 42.6492 223.592C42.6866 223.608 42.7239 223.635 42.7612 223.672C42.7986 223.704 42.8386 223.747 42.8812 223.8L49.5132 232.432C49.5026 232.293 49.4919 232.16 49.4812 232.032C49.4759 231.899 49.4732 231.773 49.4732 231.656V223.536H50.8333ZM63.716 235H62.164V223.536H63.716V235ZM84.9844 229.272C84.9844 230.131 84.8484 230.912 84.5764 231.616C84.3044 232.32 83.9204 232.923 83.4244 233.424C82.9284 233.925 82.331 234.315 81.6324 234.592C80.939 234.864 80.171 235 79.3284 235H75.0484V223.536H79.3284C80.171 223.536 80.939 223.675 81.6324 223.952C82.331 224.224 82.9284 224.613 83.4244 225.12C83.9204 225.621 84.3044 226.224 84.5764 226.928C84.8484 227.632 84.9844 228.413 84.9844 229.272ZM83.3924 229.272C83.3924 228.568 83.2964 227.939 83.1044 227.384C82.9124 226.829 82.6404 226.36 82.2884 225.976C81.9364 225.592 81.5097 225.299 81.0084 225.096C80.507 224.893 79.947 224.792 79.3284 224.792H76.6004V233.744H79.3284C79.947 233.744 80.507 233.643 81.0084 233.44C81.5097 233.237 81.9364 232.947 82.2884 232.568C82.6404 232.184 82.9124 231.715 83.1044 231.16C83.2964 230.605 83.3924 229.976 83.3924 229.272ZM101.396 230.744L99.5958 226.08C99.5424 225.941 99.4864 225.781 99.4278 225.6C99.3691 225.413 99.3131 225.216 99.2598 225.008C99.1478 225.44 99.0331 225.8 98.9158 226.088L97.1158 230.744H101.396ZM104.628 235H103.428C103.289 235 103.177 234.965 103.092 234.896C103.006 234.827 102.942 234.739 102.9 234.632L101.828 231.864H96.6838L95.6118 234.632C95.5798 234.728 95.5184 234.813 95.4278 234.888C95.3371 234.963 95.2251 235 95.0918 235H93.8918L98.4758 223.536H100.044L104.628 235Z" fill="#002F5A"/>
<path d="M12.272 149.084L9.347 141.505C9.26033 141.28 9.16933 141.02 9.074 140.725C8.97867 140.422 8.88767 140.101 8.801 139.763C8.619 140.465 8.43267 141.05 8.242 141.518L5.317 149.084H12.272ZM17.524 156H15.574C15.3487 156 15.1667 155.944 15.028 155.831C14.8893 155.718 14.7853 155.575 14.716 155.402L12.974 150.904H4.615L2.873 155.402C2.821 155.558 2.72133 155.697 2.574 155.818C2.42667 155.939 2.24467 156 2.028 156H0.078L7.527 137.371H10.075L17.524 156ZM35.2743 147.043V154.193C34.3383 154.869 33.3373 155.376 32.2713 155.714C31.2139 156.043 30.0526 156.208 28.7873 156.208C27.2879 156.208 25.9359 155.978 24.7313 155.519C23.5266 155.051 22.4953 154.401 21.6373 153.569C20.7879 152.728 20.1336 151.723 19.6743 150.553C19.2149 149.383 18.9853 148.096 18.9853 146.692C18.9853 145.271 19.2063 143.975 19.6483 142.805C20.0989 141.635 20.7359 140.634 21.5593 139.802C22.3826 138.961 23.3836 138.311 24.5623 137.852C25.7409 137.393 27.0583 137.163 28.5143 137.163C29.2509 137.163 29.9356 137.219 30.5683 137.332C31.2009 137.436 31.7859 137.592 32.3233 137.8C32.8606 137.999 33.3589 138.246 33.8183 138.541C34.2776 138.827 34.7066 139.152 35.1053 139.516L34.3903 140.66C34.2776 140.833 34.1303 140.946 33.9483 140.998C33.7749 141.041 33.5799 140.998 33.3633 140.868C33.1553 140.747 32.9169 140.599 32.6483 140.426C32.3796 140.253 32.0503 140.088 31.6603 139.932C31.2789 139.767 30.8239 139.629 30.2953 139.516C29.7753 139.403 29.1556 139.347 28.4363 139.347C27.3876 139.347 26.4386 139.52 25.5893 139.867C24.7399 140.205 24.0163 140.695 23.4183 141.336C22.8203 141.969 22.3609 142.74 22.0403 143.65C21.7196 144.551 21.5593 145.565 21.5593 146.692C21.5593 147.862 21.7239 148.911 22.0533 149.838C22.3913 150.757 22.8679 151.541 23.4833 152.191C24.1073 152.832 24.8613 153.322 25.7453 153.66C26.6293 153.998 27.6216 154.167 28.7223 154.167C29.5889 154.167 30.3559 154.072 31.0233 153.881C31.6993 153.682 32.3579 153.409 32.9993 153.062V148.967H30.1003C29.9356 148.967 29.8013 148.919 29.6973 148.824C29.6019 148.729 29.5543 148.612 29.5543 148.473V147.043H35.2743ZM51.2765 153.946L51.2635 156H39.7845V137.371H51.2635V139.425H42.3065V145.613H49.5605V147.589H42.3065V153.946H51.2765ZM70.5333 137.371V156H69.2723C69.073 156 68.904 155.965 68.7653 155.896C68.6353 155.827 68.5053 155.71 68.3753 155.545L57.5983 141.505C57.6157 141.722 57.6287 141.934 57.6373 142.142C57.646 142.35 57.6503 142.545 57.6503 142.727V156H55.4403V137.371H56.7403C56.853 137.371 56.9483 137.38 57.0263 137.397C57.1043 137.406 57.1737 137.427 57.2343 137.462C57.295 137.488 57.3557 137.531 57.4163 137.592C57.477 137.644 57.542 137.713 57.6113 137.8L68.3883 151.827C68.371 151.602 68.3537 151.385 68.3363 151.177C68.3277 150.96 68.3233 150.757 68.3233 150.566V137.371H70.5333ZM89.0238 152.152C89.1625 152.152 89.2838 152.208 89.3878 152.321L90.3888 153.4C89.6261 154.284 88.6988 154.973 87.6068 155.467C86.5235 155.961 85.2105 156.208 83.6678 156.208C82.3331 156.208 81.1198 155.978 80.0278 155.519C78.9358 155.051 78.0041 154.401 77.2328 153.569C76.4615 152.728 75.8635 151.723 75.4388 150.553C75.0141 149.383 74.8018 148.096 74.8018 146.692C74.8018 145.288 75.0228 144.001 75.4648 142.831C75.9068 141.661 76.5265 140.656 77.3238 139.815C78.1298 138.974 79.0918 138.324 80.2098 137.865C81.3278 137.397 82.5628 137.163 83.9148 137.163C85.2408 137.163 86.4108 137.375 87.4248 137.8C88.4388 138.225 89.3315 138.801 90.1028 139.529L89.2708 140.686C89.2188 140.773 89.1495 140.846 89.0628 140.907C88.9848 140.959 88.8765 140.985 88.7378 140.985C88.5818 140.985 88.3911 140.903 88.1658 140.738C87.9405 140.565 87.6458 140.374 87.2818 140.166C86.9178 139.958 86.4628 139.772 85.9168 139.607C85.3708 139.434 84.6991 139.347 83.9018 139.347C82.9398 139.347 82.0601 139.516 81.2628 139.854C80.4655 140.183 79.7765 140.664 79.1958 141.297C78.6238 141.93 78.1775 142.701 77.8568 143.611C77.5361 144.521 77.3758 145.548 77.3758 146.692C77.3758 147.853 77.5405 148.889 77.8698 149.799C78.2078 150.709 78.6628 151.48 79.2348 152.113C79.8155 152.737 80.4958 153.214 81.2758 153.543C82.0645 153.872 82.9138 154.037 83.8238 154.037C84.3785 154.037 84.8768 154.007 85.3188 153.946C85.7695 153.877 86.1811 153.773 86.5538 153.634C86.9351 153.495 87.2861 153.322 87.6068 153.114C87.9361 152.897 88.2611 152.642 88.5818 152.347C88.7291 152.217 88.8765 152.152 89.0238 152.152ZM96.485 156H93.963V137.371H96.485V156ZM111.793 149.084L108.868 141.505C108.781 141.28 108.69 141.02 108.595 140.725C108.5 140.422 108.409 140.101 108.322 139.763C108.14 140.465 107.954 141.05 107.763 141.518L104.838 149.084H111.793ZM117.045 156H115.095C114.87 156 114.688 155.944 114.549 155.831C114.41 155.718 114.306 155.575 114.237 155.402L112.495 150.904H104.136L102.394 155.402C102.342 155.558 102.242 155.697 102.095 155.818C101.948 155.939 101.766 156 101.549 156H99.5991L107.048 137.371H109.596L117.045 156ZM13.871 180.946L13.858 183H2.379V164.371H13.858V166.425H4.901V172.613H12.155V174.589H4.901V180.946H13.871ZM27.5639 167.283C27.4859 167.413 27.3992 167.513 27.3039 167.582C27.2172 167.643 27.1089 167.673 26.9789 167.673C26.8315 167.673 26.6582 167.599 26.4589 167.452C26.2595 167.305 26.0082 167.144 25.7049 166.971C25.4102 166.789 25.0505 166.624 24.6259 166.477C24.2099 166.33 23.7029 166.256 23.1049 166.256C22.5415 166.256 22.0432 166.334 21.6099 166.49C21.1852 166.637 20.8255 166.841 20.5309 167.101C20.2449 167.361 20.0282 167.669 19.8809 168.024C19.7335 168.371 19.6599 168.748 19.6599 169.155C19.6599 169.675 19.7855 170.108 20.0369 170.455C20.2969 170.793 20.6349 171.083 21.0509 171.326C21.4755 171.569 21.9522 171.781 22.4809 171.963C23.0182 172.136 23.5642 172.318 24.1189 172.509C24.6822 172.7 25.2282 172.916 25.7569 173.159C26.2942 173.393 26.7709 173.692 27.1869 174.056C27.6115 174.42 27.9495 174.866 28.2009 175.395C28.4609 175.924 28.5909 176.574 28.5909 177.345C28.5909 178.16 28.4522 178.927 28.1749 179.646C27.8975 180.357 27.4902 180.976 26.9529 181.505C26.4242 182.034 25.7699 182.45 24.9899 182.753C24.2185 183.056 23.3389 183.208 22.3509 183.208C21.1375 183.208 20.0369 182.991 19.0489 182.558C18.0609 182.116 17.2159 181.522 16.5139 180.777L17.2419 179.581C17.3112 179.486 17.3935 179.408 17.4889 179.347C17.5929 179.278 17.7055 179.243 17.8269 179.243C17.9395 179.243 18.0652 179.291 18.2039 179.386C18.3512 179.473 18.5159 179.585 18.6979 179.724C18.8799 179.863 19.0879 180.014 19.3219 180.179C19.5559 180.344 19.8202 180.495 20.1149 180.634C20.4182 180.773 20.7605 180.89 21.1419 180.985C21.5232 181.072 21.9522 181.115 22.4289 181.115C23.0269 181.115 23.5599 181.033 24.0279 180.868C24.4959 180.703 24.8902 180.474 25.2109 180.179C25.5402 179.876 25.7915 179.516 25.9649 179.1C26.1382 178.684 26.2249 178.22 26.2249 177.709C26.2249 177.146 26.0949 176.686 25.8349 176.331C25.5835 175.967 25.2499 175.664 24.8339 175.421C24.4179 175.178 23.9412 174.975 23.4039 174.81C22.8665 174.637 22.3205 174.463 21.7659 174.29C21.2112 174.108 20.6652 173.9 20.1279 173.666C19.5905 173.432 19.1139 173.129 18.6979 172.756C18.2819 172.383 17.9439 171.92 17.6839 171.365C17.4325 170.802 17.3069 170.108 17.3069 169.285C17.3069 168.626 17.4325 167.989 17.6839 167.374C17.9439 166.759 18.3165 166.213 18.8019 165.736C19.2959 165.259 19.8982 164.878 20.6089 164.592C21.3282 164.306 22.1515 164.163 23.0789 164.163C24.1189 164.163 25.0635 164.328 25.9129 164.657C26.7709 164.986 27.5249 165.463 28.1749 166.087L27.5639 167.283ZM38.301 174.03C39.0204 174.03 39.653 173.935 40.199 173.744C40.7537 173.553 41.2174 173.289 41.59 172.951C41.9714 172.604 42.2574 172.193 42.448 171.716C42.6387 171.239 42.734 170.715 42.734 170.143C42.734 168.956 42.3657 168.028 41.629 167.361C40.901 166.694 39.7917 166.36 38.301 166.36H35.311V174.03H38.301ZM38.301 164.371C39.4797 164.371 40.5024 164.51 41.369 164.787C42.2444 165.056 42.968 165.441 43.54 165.944C44.112 166.447 44.5367 167.053 44.814 167.764C45.1 168.475 45.243 169.268 45.243 170.143C45.243 171.01 45.0914 171.803 44.788 172.522C44.4847 173.241 44.0384 173.861 43.449 174.381C42.8684 174.901 42.1447 175.308 41.278 175.603C40.42 175.889 39.4277 176.032 38.301 176.032H35.311V183H32.802V164.371H38.301ZM57.6654 176.084L54.7404 168.505C54.6537 168.28 54.5627 168.02 54.4674 167.725C54.372 167.422 54.281 167.101 54.1944 166.763C54.0124 167.465 53.826 168.05 53.6354 168.518L50.7104 176.084H57.6654ZM62.9174 183H60.9674C60.742 183 60.56 182.944 60.4214 182.831C60.2827 182.718 60.1787 182.575 60.1094 182.402L58.3674 177.904H50.0084L48.2664 182.402C48.2144 182.558 48.1147 182.697 47.9674 182.818C47.82 182.939 47.638 183 47.4214 183H45.4714L52.9204 164.371H55.4684L62.9174 183ZM78.6136 179.152C78.7523 179.152 78.8736 179.208 78.9776 179.321L79.9786 180.4C79.216 181.284 78.2886 181.973 77.1966 182.467C76.1133 182.961 74.8003 183.208 73.2576 183.208C71.923 183.208 70.7096 182.978 69.6176 182.519C68.5256 182.051 67.594 181.401 66.8226 180.569C66.0513 179.728 65.4533 178.723 65.0286 177.553C64.604 176.383 64.3916 175.096 64.3916 173.692C64.3916 172.288 64.6126 171.001 65.0546 169.831C65.4966 168.661 66.1163 167.656 66.9136 166.815C67.7196 165.974 68.6816 165.324 69.7996 164.865C70.9176 164.397 72.1526 164.163 73.5046 164.163C74.8306 164.163 76.0006 164.375 77.0146 164.8C78.0286 165.225 78.9213 165.801 79.6926 166.529L78.8606 167.686C78.8086 167.773 78.7393 167.846 78.6526 167.907C78.5746 167.959 78.4663 167.985 78.3276 167.985C78.1716 167.985 77.981 167.903 77.7556 167.738C77.5303 167.565 77.2356 167.374 76.8716 167.166C76.5076 166.958 76.0526 166.772 75.5066 166.607C74.9606 166.434 74.289 166.347 73.4916 166.347C72.5296 166.347 71.65 166.516 70.8526 166.854C70.0553 167.183 69.3663 167.664 68.7856 168.297C68.2136 168.93 67.7673 169.701 67.4466 170.611C67.126 171.521 66.9656 172.548 66.9656 173.692C66.9656 174.853 67.1303 175.889 67.4596 176.799C67.7976 177.709 68.2526 178.48 68.8246 179.113C69.4053 179.737 70.0856 180.214 70.8656 180.543C71.6543 180.872 72.5036 181.037 73.4136 181.037C73.9683 181.037 74.4666 181.007 74.9086 180.946C75.3593 180.877 75.771 180.773 76.1436 180.634C76.525 180.495 76.876 180.322 77.1966 180.114C77.526 179.897 77.851 179.642 78.1716 179.347C78.319 179.217 78.4663 179.152 78.6136 179.152ZM86.0748 183H83.5528V164.371H86.0748V183ZM101.383 176.084L98.4579 168.505C98.3713 168.28 98.2803 168.02 98.1849 167.725C98.0896 167.422 97.9986 167.101 97.9119 166.763C97.7299 167.465 97.5436 168.05 97.3529 168.518L94.4279 176.084H101.383ZM106.635 183H104.685C104.46 183 104.278 182.944 104.139 182.831C104 182.718 103.896 182.575 103.827 182.402L102.085 177.904H93.7259L91.9839 182.402C91.9319 182.558 91.8323 182.697 91.6849 182.818C91.5376 182.939 91.3556 183 91.1389 183H89.1889L96.6379 164.371H99.1859L106.635 183ZM120.305 180.881V183H109.736V164.371H112.245V180.881H120.305ZM18.525 200.692C18.525 202.087 18.304 203.357 17.862 204.501C17.42 205.645 16.796 206.624 15.99 207.439C15.184 208.254 14.2133 208.886 13.078 209.337C11.9513 209.779 10.7033 210 9.334 210H2.379V191.371H9.334C10.7033 191.371 11.9513 191.596 13.078 192.047C14.2133 192.489 15.184 193.122 15.99 193.945C16.796 194.76 17.42 195.739 17.862 196.883C18.304 198.027 18.525 199.297 18.525 200.692ZM15.938 200.692C15.938 199.548 15.782 198.525 15.47 197.624C15.158 196.723 14.716 195.96 14.144 195.336C13.572 194.712 12.8787 194.235 12.064 193.906C11.2493 193.577 10.3393 193.412 9.334 193.412H4.901V207.959H9.334C10.3393 207.959 11.2493 207.794 12.064 207.465C12.8787 207.136 13.572 206.663 14.144 206.048C14.716 205.424 15.158 204.661 15.47 203.76C15.782 202.859 15.938 201.836 15.938 200.692ZM34.3003 207.946L34.2873 210H22.8083V191.371H34.2873V193.425H25.3303V199.613H32.5843V201.589H25.3303V207.946H34.3003ZM49.0332 207.881V210H38.4642V191.371H40.9732V207.881H49.0332ZM64.4839 201.03C65.2032 201.03 65.8359 200.935 66.3819 200.744C66.9365 200.553 67.4002 200.289 67.7729 199.951C68.1542 199.604 68.4402 199.193 68.6309 198.716C68.8215 198.239 68.9169 197.715 68.9169 197.143C68.9169 195.956 68.5485 195.028 67.8119 194.361C67.0839 193.694 65.9745 193.36 64.4839 193.36H61.4939V201.03H64.4839ZM64.4839 191.371C65.6625 191.371 66.6852 191.51 67.5519 191.787C68.4272 192.056 69.1509 192.441 69.7229 192.944C70.2949 193.447 70.7195 194.053 70.9969 194.764C71.2829 195.475 71.4259 196.268 71.4259 197.143C71.4259 198.01 71.2742 198.803 70.9709 199.522C70.6675 200.241 70.2212 200.861 69.6319 201.381C69.0512 201.901 68.3275 202.308 67.4609 202.603C66.6029 202.889 65.6105 203.032 64.4839 203.032H61.4939V210H58.9849V191.371H64.4839ZM86.7421 207.946L86.7291 210H75.2501V191.371H86.7291V193.425H77.7721V199.613H85.0261V201.589H77.7721V207.946H86.7421ZM96.067 200.393C96.795 200.393 97.4363 200.306 97.991 200.133C98.5543 199.951 99.0223 199.7 99.395 199.379C99.7763 199.05 100.062 198.66 100.253 198.209C100.444 197.758 100.539 197.26 100.539 196.714C100.539 195.605 100.175 194.768 99.447 194.205C98.719 193.642 97.627 193.36 96.171 193.36H93.415V200.393H96.067ZM104.673 210H102.437C101.978 210 101.64 209.822 101.423 209.467L96.587 202.811C96.4396 202.603 96.2793 202.456 96.106 202.369C95.9413 202.274 95.6813 202.226 95.326 202.226H93.415V210H90.906V191.371H96.171C97.3496 191.371 98.368 191.492 99.226 191.735C100.084 191.969 100.79 192.311 101.345 192.762C101.908 193.213 102.324 193.759 102.593 194.4C102.862 195.033 102.996 195.743 102.996 196.532C102.996 197.191 102.892 197.806 102.684 198.378C102.476 198.95 102.173 199.466 101.774 199.925C101.384 200.376 100.903 200.761 100.331 201.082C99.7676 201.403 99.1263 201.645 98.407 201.81C98.7276 201.992 99.005 202.256 99.239 202.603L104.673 210ZM114.944 207.998C115.716 207.998 116.405 207.868 117.011 207.608C117.618 207.348 118.129 206.984 118.545 206.516C118.97 206.048 119.291 205.489 119.507 204.839C119.733 204.189 119.845 203.474 119.845 202.694V191.371H122.354V202.694C122.354 203.769 122.181 204.765 121.834 205.684C121.496 206.603 121.007 207.4 120.365 208.076C119.733 208.743 118.957 209.268 118.038 209.649C117.12 210.03 116.088 210.221 114.944 210.221C113.8 210.221 112.769 210.03 111.85 209.649C110.932 209.268 110.152 208.743 109.51 208.076C108.869 207.4 108.375 206.603 108.028 205.684C107.69 204.765 107.521 203.769 107.521 202.694V191.371H110.03V202.681C110.03 203.461 110.139 204.176 110.355 204.826C110.581 205.476 110.901 206.035 111.317 206.503C111.742 206.971 112.258 207.339 112.864 207.608C113.48 207.868 114.173 207.998 114.944 207.998ZM119.858 185.924L115.62 189.642C115.49 189.763 115.365 189.837 115.243 189.863C115.122 189.889 114.975 189.902 114.801 189.902H113.137L116.14 186.34C116.288 186.149 116.435 186.032 116.582 185.989C116.738 185.946 116.959 185.924 117.245 185.924H119.858Z" fill="#002F5A"/>
</svg>
